<?xml version="1.0" encoding="UTF-8"?>
<svg width="24px" height="16px" viewBox="0 0 24 16" version="1.1" xmlns="http://www.w3.org/2000/svg" xmlns:xlink="http://www.w3.org/1999/xlink">
    <!-- Generator: sketchtool 61 (101010) - https://sketch.com -->
    <title>6EDAF56D-C74D-4554-9B5E-B68237599D66@1x</title>
    <desc>Created with sketchtool.</desc>
    <g id="V1---Fro-Dev---02/12" stroke="none" stroke-width="1" fill="none" fill-rule="evenodd">
        <g id="Module-2---Final-Output-Screen---1---Loan-Approved" transform="translate(-868.000000, -110.000000)">
            <g id="Group-5" transform="translate(868.000000, 106.000000)">
                <g id="cloud_download-24px">
                    <polygon id="Path" points="0 0 24 0 24 24 0 24"></polygon>
                    <path d="M19.35,10.04 C18.67,6.59 15.64,4 12,4 C9.11,4 6.6,5.64 5.35,8.04 C2.34,8.36 0,10.91 0,14 C0,17.31 2.69,20 6,20 L19,20 C21.76,20 24,17.76 24,15 C24,12.36 21.95,10.22 19.35,10.04 Z M17,13 L12.35,17.65 C12.15,17.85 11.84,17.85 11.64,17.65 L7,13 L10,13 L10,9 L14,9 L14,13 L17,13 Z" id="Shape" fill="#bbb" fill-rule="nonzero"></path>
                </g>
            </g>
        </g>
    </g>
</svg>