<?xml version="1.0" encoding="UTF-8"?>
<svg width="24px" height="24px" viewBox="0 0 24 24" version="1.1" xmlns="http://www.w3.org/2000/svg" xmlns:xlink="http://www.w3.org/1999/xlink">
    <!-- Generator: sketchtool 61 (101010) - https://sketch.com -->
    <title>1E2CAEEF-E83C-4ECB-AE67-7B06FAA0C68D1</title>
    <desc>Created with sketchtool.</desc>
    <g id="V1---Fro-Dev---02/12" stroke="none" stroke-width="1" fill="none" fill-rule="evenodd">
        <g id="Module-2---Final-Output-Screen---3---Loan-rejected" transform="translate(-290.000000, -350.000000)">
            <g id="Group-4-Copy" transform="translate(70.000000, 156.000000)">
                <g id="Group-8" transform="translate(20.000000, 184.000000)">
                    <g id="Group-8-Copy-2" transform="translate(200.000000, 10.000000)">
                        <circle id="Oval" fill="#BE0303" cx="12" cy="12" r="12"></circle>
                        <path d="M16.778157,7.22942738 C16.4823663,6.93363671 16.0045506,6.93363671 15.70876,7.22942738 L12,10.930603 L8.29124005,7.221843 C7.99544937,6.92605233 7.51763367,6.92605233 7.221843,7.221843 C6.92605233,7.51763367 6.92605233,7.99544937 7.221843,8.29124005 L10.930603,12 L7.221843,15.70876 C6.92605233,16.0045506 6.92605233,16.4823663 7.221843,16.778157 C7.51763367,17.0739477 7.99544937,17.0739477 8.29124005,16.778157 L12,13.069397 L15.70876,16.778157 C16.0045506,17.0739477 16.4823663,17.0739477 16.778157,16.778157 C17.0739477,16.4823663 17.0739477,16.0045506 16.778157,15.70876 L13.069397,12 L16.778157,8.29124005 C17.0663633,8.00303375 17.0663633,7.51763367 16.778157,7.22942738 Z" id="Path" fill="#FFFFFF" fill-rule="nonzero"></path>
                    </g>
                </g>
            </g>
        </g>
    </g>
</svg>