<?xml version="1.0" encoding="UTF-8"?>
<svg width="253px" height="241px" viewBox="0 0 253 241" version="1.1" xmlns="http://www.w3.org/2000/svg" xmlns:xlink="http://www.w3.org/1999/xlink">
    <!-- Generator: sketchtool 61 (101010) - https://sketch.com -->
    <title>035442AE-B3E5-429F-9844-4946A7C2D30F@1x</title>
    <desc>Created with sketchtool.</desc>
    <defs>
        <linearGradient x1="49.9988159%" y1="100%" x2="49.9988159%" y2="0%" id="linearGradient-1">
            <stop stop-color="#808080" stop-opacity="0.25" offset="0%"></stop>
            <stop stop-color="#808080" stop-opacity="0.12" offset="54%"></stop>
            <stop stop-color="#808080" stop-opacity="0.1" offset="100%"></stop>
        </linearGradient>
        <linearGradient x1="50%" y1="100%" x2="50%" y2="0%" id="linearGradient-2">
            <stop stop-color="#808080" stop-opacity="0.25" offset="0%"></stop>
            <stop stop-color="#808080" stop-opacity="0.12" offset="54%"></stop>
            <stop stop-color="#808080" stop-opacity="0.1" offset="100%"></stop>
        </linearGradient>
        <linearGradient x1="58.5024038%" y1="98.8803643%" x2="41.5446793%" y2="1.02948481%" id="linearGradient-3">
            <stop stop-color="#808080" stop-opacity="0.25" offset="0%"></stop>
            <stop stop-color="#808080" stop-opacity="0.12" offset="54%"></stop>
            <stop stop-color="#808080" stop-opacity="0.1" offset="100%"></stop>
        </linearGradient>
        <linearGradient x1="49.9988159%" y1="100%" x2="49.9988159%" y2="0%" id="linearGradient-4">
            <stop stop-color="#808080" stop-opacity="0.25" offset="0%"></stop>
            <stop stop-color="#808080" stop-opacity="0.12" offset="54%"></stop>
            <stop stop-color="#808080" stop-opacity="0.1" offset="100%"></stop>
        </linearGradient>
        <linearGradient x1="50%" y1="100%" x2="50%" y2="0%" id="linearGradient-5">
            <stop stop-color="#808080" stop-opacity="0.25" offset="0%"></stop>
            <stop stop-color="#808080" stop-opacity="0.12" offset="54%"></stop>
            <stop stop-color="#808080" stop-opacity="0.1" offset="100%"></stop>
        </linearGradient>
        <linearGradient x1="50%" y1="99.9144422%" x2="50%" y2="-0.0855578371%" id="linearGradient-6">
            <stop stop-color="#808080" stop-opacity="0.25" offset="0%"></stop>
            <stop stop-color="#808080" stop-opacity="0.12" offset="54%"></stop>
            <stop stop-color="#808080" stop-opacity="0.1" offset="100%"></stop>
        </linearGradient>
    </defs>
    <g id="V1---Fro-Dev---02/12" stroke="none" stroke-width="1" fill="none" fill-rule="evenodd">
        <g id="Empty-State" transform="translate(-414.000000, -285.000000)" fill-rule="nonzero">
            <g id="Group-7" transform="translate(70.000000, 184.000000)">
                <g id="no-data" transform="translate(344.000000, 101.000000)">
                    <polygon id="Rectangle" fill="#E0E0E0" transform="translate(106.655952, 118.753491) rotate(-12.110000) translate(-106.655952, -118.753491) " points="39.3416047 25.6147699 174.022068 25.5773026 173.9703 211.892213 39.2898372 211.92968"></polygon>
                    <g id="Group" opacity="0.5" transform="translate(23.000000, 16.000000)" fill="url(#linearGradient-1)">
                        <polygon id="Rectangle" transform="translate(83.034323, 102.409395) rotate(-12.110000) translate(-83.034323, -102.409395) " points="17.5476798 12.5382509 148.28203 12.7111844 148.520967 192.280539 17.7866168 192.107605"></polygon>
                    </g>
                    <polygon id="Rectangle" fill="#FAFAFA" transform="translate(106.517113, 118.105827) rotate(-12.110000) translate(-106.517113, -118.105827) " points="43.1337038 30.1035413 169.949434 30.068262 169.900522 206.108113 43.0847911 206.143392"></polygon>
                    <polygon id="Rectangle" fill="url(#linearGradient-2)" transform="translate(88.237420, 32.002194) rotate(-12.110000) translate(-88.237420, -32.002194) " points="56.7836913 24.3817904 119.695388 24.3642888 119.691149 39.6225981 56.7794518 39.6400997"></polygon>
                    <path d="M83.2871461,9.19338015 C78.9702042,10.2138567 76.2388491,14.9832741 77.1885203,19.8451819 C78.1381914,24.7070896 82.4047082,27.8270964 86.7132459,26.8066199 C91.0217836,25.7861433 93.7615429,21.0167259 92.8118717,16.1548181 C91.8622005,11.2929104 87.6040879,8.17290363 83.2871461,9.19338015 Z M85.9960901,23.0977581 C84.1299496,23.5875471 82.1800032,22.7863987 81.0620594,21.0705791 C79.9441156,19.3547594 79.8803056,17.065195 80.9005982,15.277199 C81.9208908,13.489203 83.8225578,12.5580431 85.7124656,12.9210464 C87.6023734,13.2840496 89.1050045,14.8690887 89.5146358,16.9317368 C89.7941046,18.2631408 89.579982,19.662221 88.9196443,20.8194197 C88.2593065,21.9766185 87.2071922,22.7965356 85.9960901,23.0977581 Z" id="Shape" fill="url(#linearGradient-3)"></path>
                    <polygon id="Rectangle" fill="#1F40E6" transform="translate(88.029772, 31.033391) rotate(-12.110000) translate(-88.029772, -31.033391) " points="57.2385356 23.7491337 118.825062 23.7320007 118.821009 38.3176484 57.234483 38.3347814"></polygon>
                    <path d="M83.7166028,11.1781513 C79.1277917,12.1052256 76.2061875,16.3581897 77.1909257,20.6775457 C78.1756639,24.9969018 82.6938656,27.7470914 87.2827531,26.8203524 C91.8716406,25.8936133 94.7935954,21.6408626 93.8092133,17.3214347 C93.3364474,15.2469576 92.0074827,13.4342485 90.1147173,12.2821388 C88.2219519,11.1300291 85.9204556,10.7329085 83.7166028,11.1781513 L83.7166028,11.1781513 Z M86.5280505,23.5219981 C84.5882979,23.913772 82.5888295,23.1670606 81.4620658,21.6300808 C80.3353021,20.0931011 80.303161,18.0685636 81.3806309,16.5005795 C82.4581009,14.9325953 84.4329725,14.1299814 86.3842957,14.4670241 C88.3356188,14.8040668 89.8790773,16.214385 90.2949036,18.0402991 C90.8625991,20.533078 89.1762444,22.9871395 86.5280505,23.5219981 L86.5280505,23.5219981 Z" id="Shape" fill="#1F40E6"></path>
                    <rect id="Rectangle" fill="#E0E0E0" x="80" y="37" width="135" height="186"></rect>
                    <g id="Group" opacity="0.5" transform="translate(83.000000, 39.000000)" fill="url(#linearGradient-4)">
                        <rect id="Rectangle" x="0.0860520095" y="0.0369863014" width="129.769504" height="179.818151"></rect>
                    </g>
                    <rect id="Rectangle" fill="#FFFFFF" x="83" y="40" width="127" height="176"></rect>
                    <rect id="Rectangle" fill="url(#linearGradient-5)" x="117" y="33" width="62" height="16"></rect>
                    <path d="M146.5,18 C141.806237,18 138,22.0287474 138,27 C138,31.9712526 141.806237,36 146.5,36 C151.193763,36 155,31.9712526 155,27 C155,22.0287474 151.193763,18 146.5,18 Z M146.5,32.1930185 C144.4589,32.2431125 142.591682,31.0101289 141.776794,29.0741363 C140.961906,27.1381438 141.361608,24.8846319 142.787856,23.3737864 C144.214104,21.8629408 146.382907,21.395597 148.273932,22.1916212 C150.164957,22.9876455 151.401668,24.8885355 151.402242,27 C151.422111,29.8245067 149.231025,32.134544 146.5,32.1683778 L146.5,32.1930185 Z" id="Shape" fill="url(#linearGradient-6)"></path>
                    <rect id="Rectangle" fill="#1F40E6" x="117" y="32" width="61" height="15"></rect>
                    <path d="M146.500124,19 C143.062245,19 139.962882,20.9491089 138.647263,23.9384604 C137.331644,26.9278118 138.058857,30.3687041 140.489804,32.6566547 C142.920752,34.9446052 146.5767,35.6290412 149.752886,34.3908113 C152.929072,33.1525814 155,30.2355338 155,26.9998831 C155,22.5816697 151.194476,19 146.500124,19 L146.500124,19 Z M146.500124,31.617073 C143.793127,31.6139042 141.600462,29.5476428 141.600462,26.9998784 C141.600462,24.4521139 143.793144,22.38586 146.500142,22.3826966 C149.207139,22.3795406 151.405256,24.4406694 151.411975,26.988426 C151.411169,28.2134778 150.893121,29.3880109 149.971883,30.2534473 C149.050644,31.1188837 147.801741,31.6042719 146.500124,31.6027517 L146.500124,31.617073 Z" id="Shape" fill="#1F40E6"></path>
                    <g id="Group" opacity="0.5" transform="translate(3.000000, 228.000000)" fill="#47E6B1">
                        <rect id="Rectangle" x="2.52818182" y="0.0136363636" width="1.02545455" height="5.81727273"></rect>
                        <polygon id="Rectangle" transform="translate(3.042273, 2.923636) rotate(90.000000) translate(-3.042273, -2.923636) " points="2.52954545 0.015 3.555 0.015 3.555 5.83227273 2.52954545 5.83227273"></polygon>
                    </g>
                    <g id="Group" opacity="0.5" transform="translate(137.000000, 0.000000)" fill="#47E6B1">
                        <rect id="Rectangle" x="2.47565217" y="0" width="1" height="5.81727273"></rect>
                        <polygon id="Rectangle" transform="translate(2.967391, 2.907273) rotate(90.000000) translate(-2.967391, -2.907273) " points="2.45466403 0.125098814 3.48011858 0.125098814 3.48011858 5.68944664 2.45466403 5.68944664"></polygon>
                    </g>
                    <path d="M238.510406,238.541721 C237.742658,238.263214 237.347396,237.549334 237.591354,236.881825 C237.610374,236.832506 237.622376,236.781495 237.627115,236.729842 L237.627115,236.729842 C237.649025,236.426793 237.430115,236.147564 237.088288,236.042545 C236.74646,235.937526 236.362435,236.031516 236.143043,236.273892 L236.143043,236.273892 C236.105857,236.315406 236.07465,236.360415 236.050065,236.407995 C235.715857,237.047785 234.8592,237.37717 234.05819,237.173872 C233.999007,237.158022 233.937794,237.14802 233.875811,237.144071 L233.875811,237.144071 C233.512152,237.125813 233.177077,237.308238 233.051054,237.593094 C232.925031,237.87795 233.037819,238.197971 233.328671,238.380797 L233.328671,238.380797 C233.378487,238.411786 233.432498,238.437791 233.489594,238.458279 C234.257342,238.736786 234.652604,239.450666 234.408646,240.118175 C234.389626,240.167494 234.377624,240.218505 234.372885,240.270158 L234.372885,240.270158 C234.350975,240.573207 234.569885,240.852436 234.911712,240.957455 C235.25354,241.062474 235.637565,240.968484 235.856957,240.726108 L235.856957,240.726108 C235.894143,240.684594 235.92535,240.639585 235.949935,240.592005 C236.284143,239.952215 237.1408,239.62283 237.94181,239.826128 C238.000993,239.841978 238.062206,239.85198 238.124189,239.855929 L238.124189,239.855929 C238.487848,239.874187 238.822923,239.691762 238.948946,239.406906 C239.074969,239.12205 238.962181,238.802029 238.671329,238.619203 L238.671329,238.619203 C238.621513,238.588214 238.567502,238.562209 238.510406,238.541721 Z" id="Path" fill="#4D8AF0" opacity="0.5"></path>
                    <path d="M42.5104057,174.541721 C41.7426578,174.263214 41.3473963,173.549334 41.5913541,172.881825 C41.6103737,172.832506 41.6223762,172.781495 41.6271148,172.729842 L41.6271148,172.729842 C41.6490248,172.426793 41.4301147,172.147564 41.0882876,172.042545 C40.7464605,171.937526 40.3624346,172.031516 40.1430431,172.273892 L40.1430431,172.273892 C40.1058568,172.315406 40.0746504,172.360415 40.0500651,172.407995 C39.7158566,173.047785 38.8592002,173.37717 38.0581904,173.173872 C37.9990069,173.158022 37.9377943,173.14802 37.8758105,173.144071 L37.8758105,173.144071 C37.512152,173.125813 37.1770769,173.308238 37.0510539,173.593094 C36.9250309,173.87795 37.0378187,174.197971 37.3286708,174.380797 L37.3286708,174.380797 C37.3784867,174.411786 37.4324978,174.437791 37.4895943,174.458279 C38.2573422,174.736786 38.6526037,175.450666 38.4086459,176.118175 C38.3896263,176.167494 38.3776238,176.218505 38.3728852,176.270158 L38.3728852,176.270158 C38.3509752,176.573207 38.5698853,176.852436 38.9117124,176.957455 C39.2535395,177.062474 39.6375654,176.968484 39.8569569,176.726108 L39.8569569,176.726108 C39.8941432,176.684594 39.9253496,176.639585 39.9499349,176.592005 C40.2841434,175.952215 41.1407998,175.62283 41.9418096,175.826128 C42.0009931,175.841978 42.0622057,175.85198 42.1241895,175.855929 L42.1241895,175.855929 C42.487848,175.874187 42.8229231,175.691762 42.9489461,175.406906 C43.0749691,175.12205 42.9621813,174.802029 42.6713292,174.619203 L42.6713292,174.619203 C42.6215133,174.588214 42.5675022,174.562209 42.5104057,174.541721 Z" id="Path" fill="#FDD835" opacity="0.5"></path>
                    <path d="M205.510406,21.5417209 C204.742658,21.2632139 204.347396,20.5493335 204.591354,19.8818254 C204.610374,19.8325058 204.622376,19.7814952 204.627115,19.7298421 L204.627115,19.7298421 C204.649025,19.4267933 204.430115,19.1475641 204.088288,19.0425449 C203.74646,18.9375257 203.362435,19.0315156 203.143043,19.2738923 L203.143043,19.2738923 C203.105857,19.3154056 203.07465,19.3604149 203.050065,19.4079952 C202.715857,20.0477851 201.8592,20.3771698 201.05819,20.1738716 C200.999007,20.1580219 200.937794,20.1480198 200.875811,20.144071 L200.875811,20.144071 C200.512152,20.1258126 200.177077,20.3082378 200.051054,20.5930937 C199.925031,20.8779496 200.037819,21.1979712 200.328671,21.3807974 L200.328671,21.3807974 C200.378487,21.411786 200.432498,21.4377914 200.489594,21.4582791 C201.257342,21.7367861 201.652604,22.4506665 201.408646,23.1181746 C201.389626,23.1674942 201.377624,23.2185048 201.372885,23.2701579 L201.372885,23.2701579 C201.350975,23.5732067 201.569885,23.8524359 201.911712,23.9574551 C202.25354,24.0624743 202.637565,23.9684844 202.856957,23.7261077 L202.856957,23.7261077 C202.894143,23.6845944 202.92535,23.6395851 202.949935,23.5920048 C203.284143,22.9522149 204.1408,22.6228302 204.94181,22.8261284 C205.000993,22.8419781 205.062206,22.8519802 205.124189,22.855929 L205.124189,22.855929 C205.487848,22.8741874 205.822923,22.6917622 205.948946,22.4069063 C206.074969,22.1220504 205.962181,21.8020288 205.671329,21.6192026 L205.671329,21.6192026 C205.621513,21.588214 205.567502,21.5622086 205.510406,21.5417209 L205.510406,21.5417209 Z" id="Path" fill="#FDD835" opacity="0.5"></path>
                    <ellipse id="Oval" fill="#F55F44" opacity="0.5" cx="250" cy="96.5" rx="3" ry="2.5"></ellipse>
                    <ellipse id="Oval" fill="#F55F44" opacity="0.5" cx="71" cy="230.5" rx="3" ry="2.5"></ellipse>
                    <ellipse id="Oval" fill="#F55F44" opacity="0.5" cx="227" cy="147.5" rx="3" ry="2.5"></ellipse>
                    <ellipse id="Oval" fill="#4D8AF0" opacity="0.5" cx="27" cy="30.5" rx="3" ry="2.5"></ellipse>
                    <ellipse id="Oval" fill="#47E6B1" opacity="0.5" cx="3" cy="92.5" rx="3" ry="2.5"></ellipse>
                </g>
            </g>
        </g>
    </g>
</svg>