<?xml version="1.0" encoding="UTF-8"?>
<svg width="61px" height="79px" viewBox="0 0 61 79" version="1.1" xmlns="http://www.w3.org/2000/svg" xmlns:xlink="http://www.w3.org/1999/xlink">
    <!-- Generator: sketchtool 61 (101010) - https://sketch.com -->
    <title>A3D8E567-F445-4EB3-AAD5-869821F66092@1x</title>
    <desc>Created with sketchtool.</desc>
    <g id="V1---Fro-Dev---02/12" stroke="none" stroke-width="1" fill="none" fill-rule="evenodd" opacity="0.8">
        <g id="Module-2---Final-Output-Screen---1---Loan-Approved" transform="translate(-740.000000, -627.000000)" fill="#000000" fill-rule="nonzero">
            <g id="Group-11" transform="translate(70.000000, 550.000000)">
                <g id="Group-10-Copy-2" transform="translate(640.000000, 62.000000)">
                    <g id="noun_Industry_2987482" transform="translate(30.000000, 15.000000)">
                        <path d="M1.2786709,78.9999918 L59.725945,78.9999918 C60.4295861,78.9999918 61,78.4310123 61,77.7291508 L61,47.2291675 C61,45.1235831 59.2887584,43.4166696 57.1778349,43.4166696 L53.3556699,43.4166696 L53.3556699,37.0625064 C53.3567426,36.5486998 53.0475306,36.0848011 52.572126,35.8869862 C52.0951579,35.6912026 51.5469036,35.8015795 51.1834061,36.1665694 L43.9085519,43.4166696 L43.1632297,43.4166696 L43.1632297,37.0625064 C43.1632624,36.5664331 42.8739049,36.1156864 42.4221882,35.9081492 C41.9704715,35.700612 41.4389779,35.7742259 41.0610389,36.0966736 L32.4993892,43.4166696 L31.6967345,43.4166696 L31.6967345,37.0625064 C31.6978072,36.5486998 31.3885952,36.0848011 30.9131907,35.8869862 C30.4362225,35.6912026 29.8879683,35.8015795 29.5244707,36.1665694 L22.3515409,43.3213572 L20.2302393,19.1628287 C20.1738516,18.5034656 19.6196156,17.9976223 18.9561843,18.0000084 L6.2156341,18.0000084 C5.55220277,17.9976223 4.99796677,18.5034656 4.94157908,19.1628287 L0.00461587417,77.62113 C-0.0257765934,77.9764658 0.0949127628,78.3281882 0.337217503,78.5904239 C0.579522244,78.8526596 0.92114235,79.0012743 1.2786709,78.9999918 Z M23.0395307,46.2188556 L29.1486245,40.1315672 L29.1486245,44.6875022 C29.1486245,45.3893637 29.7190383,45.9583349 30.4226795,45.9583349 L32.9707895,45.9583349 C33.2744536,45.9583582 33.5681406,45.8501941 33.7989253,45.653335 L40.6151197,39.8265674 L40.6151197,44.6875022 C40.6151197,45.3893637 41.1855335,45.9583349 41.8891747,45.9583349 L44.4372847,45.9583349 C44.7746398,45.9569161 45.0976591,45.8220939 45.3354935,45.5834392 L50.8075598,40.1315672 L50.8075598,44.6875022 C50.8075598,45.3893637 51.3779737,45.9583349 52.0816149,45.9583349 L57.1778349,45.9583349 C57.8814761,45.9583349 58.45189,46.527306 58.45189,47.2291675 L58.45189,76.4583182 L25.2627567,76.4583182 L22.631833,46.4984387 C22.7853214,46.4337637 22.9240286,46.3386437 23.0395307,46.2188556 Z M5.02439266,48.5000002 L11.3118542,48.5000002 C12.0154953,48.5000002 12.5859092,47.931029 12.5859092,47.2291675 C12.5859092,46.527306 12.0154953,45.9583349 11.3118542,45.9583349 L5.24098201,45.9583349 L5.45757136,43.4166696 L11.3118542,43.4166696 C12.0154953,43.4166696 12.5859092,42.8476985 12.5859092,42.145837 C12.5859092,41.4439755 12.0154953,40.8750043 11.3118542,40.8750043 L5.66779044,40.8750043 L5.8843798,38.3333391 L11.3118542,38.3333391 C12.0154953,38.3333391 12.5859092,37.7643679 12.5859092,37.0625064 C12.5859092,36.3606449 12.0154953,35.7916738 11.3118542,35.7916738 L6.10096915,35.7916738 L7.37502417,20.5416821 L17.790424,20.5416821 L22.7082763,76.4583182 L2.66739087,76.4583182 L5.02439266,48.5000002 Z" id="Shape"></path>
                        <path d="M7.7509989,12.5002664 L10.2505993,12.5002664 C10.5912217,12.4668334 10.9289112,12.5877319 11.170925,12.8297585 C11.4129387,13.0717852 11.5338308,13.4094926 11.5003996,13.7501332 C11.5003996,14.4404156 12.0599542,15 12.7501998,15 C13.4404454,15 14,14.4404156 14,13.7501332 C14.0297058,12.7468649 13.6442279,11.7757813 12.934537,11.0660525 C12.2248461,10.3563238 11.2538142,9.9708254 10.2505993,10.0005328 L7.7509989,10.0005328 C7.4103765,10.0339658 7.072687,9.91306722 6.83067329,9.67104061 C6.58865958,9.42901401 6.46776746,9.09130652 6.50119868,8.75066597 C6.46776746,8.41002542 6.58865958,8.07231793 6.83067329,7.83029133 C7.072687,7.58826472 7.4103765,7.46736616 7.7509989,7.50079916 L20.2490011,7.50079916 C21.2522159,7.53050654 22.2232478,7.14500813 22.9329388,6.4352794 C23.6426297,5.72555066 24.0281075,4.75446702 23.9984018,3.75119875 C24.0281075,2.74793047 23.6426297,1.77684684 22.9329388,1.0671181 C22.2232478,0.357389363 21.2522159,-0.0281090439 20.2490011,0.00159832962 L10.2505993,0.00159832962 C9.56035375,0.00159833991 9.00079914,0.561182767 9.00079914,1.25146514 C9.00079914,1.9417475 9.56035375,2.50133193 10.2505993,2.50133194 L20.2490011,2.50133194 C20.5896235,2.46789894 20.927313,2.5887975 21.1693267,2.8308241 C21.4113404,3.07285071 21.5322325,3.41055819 21.4988013,3.75119875 C21.5322325,4.0918393 21.4113404,4.42954679 21.1693267,4.67157339 C20.927313,4.91359999 20.5896235,5.03449856 20.2490011,5.00106555 L7.7509989,5.00106555 C6.74778408,4.97135818 5.77675217,5.35685659 5.06706125,6.06658532 C4.35737032,6.77631406 3.97189245,7.7473977 4.00159824,8.75066597 C3.97189245,9.75393424 4.35737032,10.7250179 5.06706125,11.4347466 C5.77675217,12.1444754 6.74778408,12.5299738 7.7509989,12.5002664 Z" id="Path"></path>
                        <path d="M39.3333333,64 L44.6666667,64 C45.4030463,64 46,63.4403559 46,62.75 L46,55.25 C46,54.5596441 45.4030463,54 44.6666667,54 L39.3333333,54 C38.5969537,54 38,54.5596441 38,55.25 L38,62.75 C38,63.4403559 38.5969537,64 39.3333333,64 Z M40.6666667,56.5 L43.3333333,56.5 L43.3333333,61.5 L40.6666667,61.5 L40.6666667,56.5 Z" id="Shape"></path>
                        <path d="M49.3333333,64 L54.6666667,64 C55.4030463,64 56,63.4403559 56,62.75 L56,55.25 C56,54.5596441 55.4030463,54 54.6666667,54 L49.3333333,54 C48.5969537,54 48,54.5596441 48,55.25 L48,62.75 C48,63.4403559 48.5969537,64 49.3333333,64 Z M50.6666667,56.5 L53.3333333,56.5 L53.3333333,61.5 L50.6666667,61.5 L50.6666667,56.5 Z" id="Shape"></path>
                        <path d="M39.3333333,74 L44.6666667,74 C45.4030463,74 46,73.4030463 46,72.6666667 L46,67.3333333 C46,66.5969537 45.4030463,66 44.6666667,66 L39.3333333,66 C38.5969537,66 38,66.5969537 38,67.3333333 L38,72.6666667 C38,73.4030463 38.5969537,74 39.3333333,74 Z M40.6666667,68.6666667 L43.3333333,68.6666667 L43.3333333,71.3333333 L40.6666667,71.3333333 L40.6666667,68.6666667 Z" id="Shape"></path>
                        <path d="M29.3333333,64 L34.6666667,64 C35.4030463,64 36,63.4403559 36,62.75 L36,55.25 C36,54.5596441 35.4030463,54 34.6666667,54 L29.3333333,54 C28.5969537,54 28,54.5596441 28,55.25 L28,62.75 C28,63.4403559 28.5969537,64 29.3333333,64 Z M30.6666667,56.5 L33.3333333,56.5 L33.3333333,61.5 L30.6666667,61.5 L30.6666667,56.5 Z" id="Shape"></path>
                        <path d="M29.3333333,74 L34.6666667,74 C35.4030463,74 36,73.4030463 36,72.6666667 L36,67.3333333 C36,66.5969537 35.4030463,66 34.6666667,66 L29.3333333,66 C28.5969537,66 28,66.5969537 28,67.3333333 L28,72.6666667 C28,73.4030463 28.5969537,74 29.3333333,74 Z M30.6666667,68.6666667 L33.3333333,68.6666667 L33.3333333,71.3333333 L30.6666667,71.3333333 L30.6666667,68.6666667 Z" id="Shape"></path>
                        <path d="M49.3333333,74 L54.6666667,74 C55.4030463,74 56,73.4030463 56,72.6666667 L56,67.3333333 C56,66.5969537 55.4030463,66 54.6666667,66 L49.3333333,66 C48.5969537,66 48,66.5969537 48,67.3333333 L48,72.6666667 C48,73.4030463 48.5969537,74 49.3333333,74 Z M50.6666667,68.6666667 L53.3333333,68.6666667 L53.3333333,71.3333333 L50.6666667,71.3333333 L50.6666667,68.6666667 Z" id="Shape"></path>
                    </g>
                </g>
            </g>
        </g>
    </g>
</svg>