<?xml version="1.0" encoding="UTF-8"?>
<svg width="88px" height="36px" viewBox="0 0 88 36" version="1.1" xmlns="http://www.w3.org/2000/svg" xmlns:xlink="http://www.w3.org/1999/xlink">
    <!-- Generator: sketchtool 59.1 (101010) - https://sketch.com -->
    <title>A7169D17-D642-4ED6-B692-0039ADE713ED@1x</title>
    <desc>Created with sketchtool.</desc>
    <g id="V1---Fro-Dev---19/11" stroke="none" stroke-width="1" fill="none" fill-rule="evenodd">
        <g id="Credit-Tool-Dashboard_v2.1" transform="translate(-70.000000, -12.000000)" fill-rule="nonzero">
            <g id="Home-Icon" transform="translate(70.000000, 12.000000)">
                <path d="M16.0468005,30.4561839 C16.5913772,31.9181108 18.4566008,32.8235294 18.4566008,32.8235294 C18.4566008,32.8235294 19.438935,31.3586842 18.8943743,29.8967573 C18.3498136,28.4348304 16.4845772,27.5294118 16.4845772,27.5294118 C16.4845772,27.5294118 15.502243,28.9942547 16.0468005,30.4561839 Z" id="Path" fill="#051C2C"></path>
                <path d="M15.6287745,29.8561228 C16.7983144,31.025667 16.9411765,32.8235294 16.9411765,32.8235294 C16.9411765,32.8235294 15.1878266,32.7251836 14.0182843,31.5556394 C12.8487419,30.3860951 12.7058824,28.5882353 12.7058824,28.5882353 C12.7058824,28.5882353 14.4592322,28.6865785 15.6287745,29.8561228 Z" id="Path" fill="#1F40E6"></path>
                <polygon id="Path" fill="#051C2C" points="20.2340495 16.5279428 19.0588235 14.5911732 30.0281671 5.29411765 58.2352941 5.29411765 58.2352941 8.00559501 48.0494345 18.8523471 36.2963229 21.1764706"></polygon>
                <polygon id="Path" fill="#CCCCCC" points="61.948596 12.6033678 61.948596 6.35294118 58.3190937 6.35294118 58.3190937 8.32392429 57.1766381 6.97691202 47.9359253 16.5647426 46.3956204 18.1626178 44.4705882 26.1525732 47.9359253 34.9411765 65.6470588 34.9411765 65.6470588 16.9642114"></polygon>
                <rect id="Rectangle" fill="#F2F2F2" x="16.9411765" y="15.8823529" width="30.7058824" height="19.0588235"></rect>
                <rect id="Rectangle" fill="#051C2C" x="38.1176471" y="22.2352941" width="5.29411765" height="5.29411765"></rect>
                <rect id="Rectangle" fill="#CCCCCC" x="28.5882353" y="22.2352941" width="5.29411765" height="12.7058824"></rect>
                <polygon id="Path" fill="#051C2C" points="23.2941176 23.2941176 23.2941176 22.2352941 20.1176471 22.2352941 20.1176471 23.2941176 23.0292198 23.2941176"></polygon>
                <polygon id="Path" fill="#051C2C" points="23.0292198 24.3529412 20.1176471 24.3529412 20.1176471 25.4117647 23.2941176 25.4117647 23.2941176 24.3529412"></polygon>
                <rect id="Rectangle" fill="#051C2C" x="24.3529412" y="22.2352941" width="3.17647059" height="1.05882353"></rect>
                <rect id="Rectangle" fill="#051C2C" x="24.3529412" y="24.3529412" width="3.17647059" height="1.05882353"></rect>
                <polygon id="Path" fill="#051C2C" points="56.1176471 23.2941176 56.1176471 22.2352941 52.9411765 22.2352941 52.9411765 23.2941176 55.8527812 23.2941176"></polygon>
                <polygon id="Path" fill="#051C2C" points="55.8527812 26.4705882 52.9411765 26.4705882 52.9411765 27.5294118 56.1176471 27.5294118 56.1176471 26.4705882"></polygon>
                <rect id="Rectangle" fill="#051C2C" x="57.1764706" y="22.2352941" width="3.17647059" height="1.05882353"></rect>
                <rect id="Rectangle" fill="#051C2C" x="57.1764706" y="26.4705882" width="3.17647059" height="1.05882353"></rect>
                <rect id="Rectangle" fill="#3F3D56" x="0" y="34.8194863" width="87.8823529" height="1"></rect>
                <path d="M78.3527555,14.2683833 C78.3907028,22.1628056 72.5981204,28.5882353 72.5981204,28.5882353 C72.5981204,28.5882353 66.7440152,22.2142742 66.706068,14.3198519 C66.6681207,6.42542969 72.4607032,0 72.4607032,0 C72.4607032,0 78.3148083,6.37394966 78.3527555,14.2683833 Z" id="Path" fill="#1F40E6"></path>
            </g>
        </g>
    </g>
</svg>