<?xml version="1.0" encoding="UTF-8"?>
<svg width="77px" height="68px" viewBox="0 0 77 68" version="1.1" xmlns="http://www.w3.org/2000/svg" xmlns:xlink="http://www.w3.org/1999/xlink">
    <!-- Generator: sketchtool 61 (101010) - https://sketch.com -->
    <title>3CA9E183-E4C3-4613-95B6-82363039BABF@1x</title>
    <desc>Created with sketchtool.</desc>
    <g id="V1---Fro-Dev---02/12" stroke="none" stroke-width="1" fill="none" fill-rule="evenodd" opacity="0.8">
        <g id="Module-2---Final-Output-Screen---1---Loan-Approved" transform="translate(-110.000000, -632.000000)" fill="#000000" fill-rule="nonzero">
            <g id="Group-11" transform="translate(70.000000, 550.000000)">
                <g id="Group-10" transform="translate(20.000000, 62.000000)">
                    <g id="noun_Maps_2996897" transform="translate(20.000000, 20.000000)">
                        <path d="M39.4871795,25.6231884 C43.3050962,25.6231884 46.3974359,22.3155797 46.3974359,18.2318841 C46.3974359,14.1481884 43.3050962,10.8405797 39.4871795,10.8405797 C35.6692628,10.8405797 32.5769231,14.1481884 32.5769231,18.2318841 C32.5769231,22.3155797 35.6692628,25.6231884 39.4871795,25.6231884 Z M39.4871795,14.5362319 C41.3875,14.5362319 42.9423077,16.1992754 42.9423077,18.2318841 C42.9423077,20.2644928 41.3875,21.9275362 39.4871795,21.9275362 C37.586859,21.9275362 36.0320513,20.2644928 36.0320513,18.2318841 C36.0320513,16.1992754 37.586859,14.5362319 39.4871795,14.5362319 Z" id="Shape"></path>
                        <path d="M3.54241489,68 L73.439795,68 C74.5783626,68 75.6279797,67.4631579 76.3040043,66.5505263 C76.9800288,65.6378947 77.1757201,64.4747368 76.8377078,63.3652632 L67.2666235,32.0494737 C66.8040804,30.5463158 65.4342411,29.5263158 63.8687106,29.5263158 L52.3585032,29.5263158 C54.9914409,24.5336842 56.2901196,20.7042105 56.2901196,17.8947368 C56.2901196,8.03473684 48.3023559,0 38.5,0 C28.6976441,0 20.7098804,8.03473684 20.7098804,17.8947368 C20.7098804,20.7042105 22.0085591,24.5336842 24.6414968,29.5263158 L13.1312894,29.5263158 C11.5657589,29.5263158 10.1959196,30.5463158 9.73337653,32.0494737 L0.16229216,63.3652632 C-0.175720113,64.4568421 0.0199712028,65.62 0.695995749,66.5505263 C1.3720203,67.4810526 2.40384724,68 3.54241489,68 Z M24.2679043,17.8947368 C24.2679043,10.0031579 30.6545572,3.57894737 38.5,3.57894737 C46.3454428,3.57894737 52.7320957,10.0031579 52.7320957,17.8947368 C52.7320957,19.6842105 51.87817,23.3168421 47.8042326,30.4210526 C47.8042326,30.4210526 47.8042326,30.4210526 47.8042326,30.4210526 C44.5664308,36.0578947 40.581444,41.6410526 38.5,44.4505263 C36.418556,41.6410526 32.4335692,36.0578947 29.1957674,30.4210526 C29.1957674,30.4210526 29.1957674,30.4210526 29.1957674,30.4210526 C25.12183,23.3168421 24.2679043,19.6842105 24.2679043,17.8947368 Z M13.1312894,33.1052632 L26.6339902,33.1052632 C30.8858288,40.3347368 35.973803,47.0631579 36.9344695,48.3157895 L23.8231513,48.3157895 C22.8446947,48.3157895 22.0441393,49.1210526 22.0441393,50.1052632 C22.0441393,51.0894737 22.8446947,51.8947368 23.8231513,51.8947368 L53.1768487,51.8947368 C54.1553053,51.8947368 54.9558607,51.0894737 54.9558607,50.1052632 C54.9558607,49.1210526 54.1553053,48.3157895 53.1768487,48.3157895 L40.0655305,48.3157895 C41.026197,47.0631579 46.1141712,40.3347368 50.3660098,33.1052632 L63.8687106,33.1052632 L73.4575851,64.4210526 L3.54241489,64.4210526 L13.1312894,33.1052632 Z" id="Shape"></path>
                    </g>
                </g>
            </g>
        </g>
    </g>
</svg>