<?xml version="1.0" encoding="UTF-8"?>
<svg width="21px" height="24px" viewBox="0 0 21 24" version="1.1" xmlns="http://www.w3.org/2000/svg" xmlns:xlink="http://www.w3.org/1999/xlink">
    <!-- Generator: sketchtool 59.1 (101010) - https://sketch.com -->
    <title>AF7E990B-A69D-4EE0-8A11-DC8203EB741D@1x</title>
    <desc>Created with sketchtool.</desc>
    <defs>
        <rect id="path-1" x="0" y="0" width="24" height="24"></rect>
        <path d="M4.34513227,20.6369232 L8.64113227,20.6369232 C8.9323585,22.4729263 10.4784946,23.8215696 12.2921323,23.8215696 C14.10577,23.8215696 15.651906,22.4729263 15.9431323,20.6369232 L20.2391323,20.6369232 C21.3480131,20.6334903 22.3039267,19.8361526 22.5332072,18.7234109 C22.7624876,17.6106691 22.2028443,16.4848312 21.1901323,16.0215386 L19.8761323,15.4246155 L19.8761323,10.7353847 C19.8690891,7.56588424 18.0451236,4.69710422 15.2201323,3.41230778 L15.2201323,3.00307701 C15.2201323,1.93018094 14.6620587,0.938784077 13.7561323,0.402336033 C12.8502059,-0.134112011 11.7340586,-0.134112011 10.8281322,0.402336033 C9.92220588,0.938784077 9.36413224,1.93018094 9.36413227,3.00307701 L9.36413227,3.38461547 C6.54553617,4.59898245 4.71093511,7.42750761 4.70813227,10.563077 L4.70813227,15.4246155 L3.39413227,16.0215386 C2.38142024,16.4848312 1.82177695,17.6106691 2.05105738,18.7234109 C2.28033781,19.8361526 3.23625147,20.6334903 4.34513227,20.6369232 Z M12.2921323,22.5907693 C11.1425388,22.5887259 10.1418594,21.7844018 9.86513227,20.6400001 L14.7191323,20.6400001 C14.4424051,21.7844018 13.4417257,22.5887259 12.2921323,22.5907693 Z M12.2921323,1.23384624 C13.2394948,1.23379353 14.0102639,2.01609119 14.0201323,2.9876924 C13.5441839,2.86874137 13.0576883,2.7996691 12.5681323,2.78153855 C11.8945837,2.75609705 11.220718,2.82231447 10.5641323,2.97846163 C10.577258,2.00926948 11.3470788,1.23067583 12.2921323,1.23076932 L12.2921323,1.23384624 Z M3.89213227,17.1415386 L5.56313227,16.3846155 C5.78031265,16.285948 5.92029455,16.0651621 5.92013227,15.8215386 L5.92013227,10.563077 C5.92012605,6.95168741 8.77103363,4.02217303 12.2921323,4.0153847 L12.5261323,4.0153847 C15.9161323,4.13846163 18.6761323,7.15076932 18.6761323,10.7292309 L18.6761323,15.8246155 C18.67597,16.068239 18.8159519,16.2890249 19.0331323,16.3876924 L20.6921323,17.1415386 C21.1891882,17.3677366 21.4643326,17.9196194 21.3521245,18.4653464 C21.2399163,19.0110734 20.7709179,19.4020043 20.2271323,19.403077 L4.32713227,19.403077 C3.78879169,19.3880873 3.33241227,18.9925618 3.22817886,18.4506587 C3.12394546,17.9087556 3.39967569,17.365097 3.89213227,17.1415386 Z" id="path-3"></path>
    </defs>
    <g id="V1---Fro-Dev---19/11" stroke="none" stroke-width="1" fill="none" fill-rule="evenodd">
        <g id="Credit-Tool-Dashboard_v2.1" transform="translate(-860.000000, -20.000000)">
            <g id="Group-13" transform="translate(858.000000, 20.000000)">
                <g id="Notifications">
                    <mask id="mask-2" fill="white">
                        <use xlink:href="#path-1"></use>
                    </mask>
                    <g id="Rectangle"></g>
                    <mask id="mask-4" fill="white">
                        <use xlink:href="#path-3"></use>
                    </mask>
                    <use id="Mask" fill="#000000" fill-rule="nonzero" xlink:href="#path-3"></use>
                </g>
            </g>
        </g>
    </g>
</svg>