<?xml version="1.0" encoding="UTF-8"?>
<svg width="24px" height="24px" viewBox="0 0 24 24" version="1.1" xmlns="http://www.w3.org/2000/svg" xmlns:xlink="http://www.w3.org/1999/xlink">
    <!-- Generator: sketchtool 59.1 (101010) - https://sketch.com -->
    <title>F7276BB2-678C-478B-A314-0F23B1FE497C@1x</title>
    <desc>Created with sketchtool.</desc>
    <g id="V1---Fro-Dev---19/11" stroke="none" stroke-width="1" fill="none" fill-rule="evenodd">
        <g id="Credit-Tool-Dashboard_v2.1" transform="translate(-922.000000, -20.000000)" fill="#051C2C" fill-rule="nonzero">
            <g id="Group-13" transform="translate(858.000000, 20.000000)">
                <g id="Group-2" transform="translate(64.000000, 0.000000)">
                    <g id="Profile">
                        <g id="Group">
                            <path d="M12,14.1230769 C9.2,14.1230769 6.92307692,11.8461538 6.92307692,9.04615385 C6.92307692,6.24615385 9.2,3.96923077 12,3.96923077 C14.8,3.96923077 17.0769231,6.24615385 17.0769231,9.04615385 C17.0769231,11.8461538 14.8,14.1230769 12,14.1230769 Z M12,5.2 C9.87692308,5.2 8.15384615,6.92307692 8.15384615,9.04615385 C8.15384615,11.1692308 9.87692308,12.8923077 12,12.8923077 C14.1230769,12.8923077 15.8461538,11.1692308 15.8461538,9.04615385 C15.8461538,6.92307692 14.1230769,5.2 12,5.2 Z" id="Shape"></path>
                            <path d="M12,23.9076923 C5.44615385,23.9076923 0.0923076923,18.5846154 0.0923076923,12 C0.0923076923,5.41538462 5.44615385,0.0923076923 12,0.0923076923 C18.5538462,0.0923076923 23.9076923,5.44615385 23.9076923,12 C23.9076923,18.5538462 18.5538462,23.9076923 12,23.9076923 Z M12,1.32307692 C6.12307692,1.32307692 1.32307692,6.12307692 1.32307692,12 C1.32307692,17.8769231 6.12307692,22.6769231 12,22.6769231 C17.8769231,22.6769231 22.6769231,17.8769231 22.6769231,12 C22.6769231,6.12307692 17.8769231,1.32307692 12,1.32307692 Z" id="Shape"></path>
                            <path d="M4.52307692,20.3076923 L3.50769231,19.6307692 C5.38461538,16.7692308 8.58461538,15.0461538 12,15.0461538 C15.3846154,15.0461538 18.5538462,16.7384615 20.4307692,19.5384615 L19.4153846,20.2153846 C17.7538462,17.7538462 14.9846154,16.2769231 12,16.2769231 C8.98461538,16.2769231 6.18461538,17.7846154 4.52307692,20.3076923 Z" id="Path"></path>
                        </g>
                    </g>
                </g>
            </g>
        </g>
    </g>
</svg>