<?xml version="1.0" encoding="UTF-8"?>
<svg width="71px" height="58px" viewBox="0 0 71 58" version="1.1" xmlns="http://www.w3.org/2000/svg" xmlns:xlink="http://www.w3.org/1999/xlink">
    <!-- Generator: sketchtool 61 (101010) - https://sketch.com -->
    <title>7C3B716E-A917-4A73-BC2C-65E540A6245A@1x</title>
    <desc>Created with sketchtool.</desc>
    <g id="V1---Fro-Dev---02/12" stroke="none" stroke-width="1" fill="none" fill-rule="evenodd" fill-opacity="0.8">
        <g id="Module-2---Final-Output-Screen---1---Loan-Approved" transform="translate(-410.000000, -637.000000)" fill="#000000" fill-rule="nonzero">
            <g id="Group-11" transform="translate(70.000000, 550.000000)">
                <g id="Group-10-Copy" transform="translate(320.000000, 62.000000)">
                    <g id="noun_dimensions_2129419" transform="translate(20.000000, 25.000000)">
                        <path d="M36.023065,39.1286363 C35.470321,39.4144334 34.7884605,39.454993 34.15779,39.1384559 L17.6492511,30.8527416 C16.9501475,30.5018582 16.5085389,29.7845991 16.5085389,29 L16.5085389,10.3571429 C16.5085389,9.50597836 17.0017831,8.81929461 17.6747103,8.49162257 L34.15779,0.218686929 C34.7387409,-0.0728956429 35.4225494,-0.0728956429 36.0035003,0.218686929 L52.5120392,8.50440121 C53.2725144,8.88608679 53.6527514,9.62161482 53.6527514,10.3571429 L53.6527514,29 C53.6527514,29.7845991 53.2111428,30.5018582 52.5120392,30.8527416 L36.023065,39.1286363 Z M46.9749071,10.3571429 L35.0806452,4.38735614 L23.1863832,10.3571429 L35.0806452,16.3269296 L46.9749071,10.3571429 Z M33.0170778,19.9230704 L20.6356736,13.7087847 L20.6356736,27.7197867 L33.0170778,33.9340724 L33.0170778,19.9230704 Z M37.1442125,19.9230704 L37.1442125,33.9340724 L49.5256167,27.7197867 L49.5256167,13.7087847 L37.1442125,19.9230704 Z M34.2310559,51.7805264 C15.3876359,51.5501338 0,43.6715277 0,33.1428571 C0,28.1817816 3.4304878,23.717388 9.30070343,20.3792642 C10.2923198,19.8153769 11.5515705,20.1651821 12.1133169,21.1605771 C12.6750643,22.155971 12.3265865,23.4200178 11.3349702,23.9839052 C6.63162143,26.6584851 4.12713472,29.917792 4.12713472,33.1428571 C4.12713472,40.6335043 17.3852806,47.4128758 34.220184,47.6371317 L31.5579149,44.9647216 C30.7520423,44.155778 30.7520423,42.844222 31.5579149,42.0352784 C32.3637885,41.2263358 33.6703671,41.2263358 34.4762407,42.0352784 L40.6669428,48.2495641 C41.4728154,49.0585077 41.4728154,50.3700637 40.6669428,51.1790074 L34.4762407,57.3932931 C33.6703671,58.2022356 32.3637885,58.2022356 31.5579149,57.3932931 C30.7520423,56.5843495 30.7520423,55.2727934 31.5579149,54.4638498 L34.2310559,51.7805264 Z M58.8263201,23.9839052 C57.8347038,23.4200178 57.4862261,22.155971 58.0479735,21.1605771 C58.6097198,20.1651821 59.8689706,19.8153769 60.8605869,20.3792642 C66.7308025,23.717388 70.1612903,28.1817816 70.1612903,33.1428571 C70.1612903,41.4496803 60.5720837,48.2169308 46.8017759,50.7468255 C45.6807212,50.9527866 44.6055954,50.2074939 44.400416,49.0821686 C44.1952365,47.9568433 44.9376998,46.8776217 46.0587554,46.6716606 C58.1034525,44.458797 66.0341556,38.8619772 66.0341556,33.1428571 C66.0341556,29.917792 63.5296689,26.6584851 58.8263201,23.9839052 Z" id="Shape"></path>
                    </g>
                </g>
            </g>
        </g>
    </g>
</svg>